# sphere.obj — UV-сфера, радиус 1.25 (5 stacks x 8 slices)

# Северный полюс
v  0.0000   1.2500   0.0000

# Кольцо 1 (y = +0.8839, r = 0.8839)
v  0.8839   0.8839   0.0000
v  0.6250   0.8839   0.6250
v  0.0000   0.8839   0.8839
v -0.6250   0.8839   0.6250
v -0.8839   0.8839   0.0000
v -0.6250   0.8839  -0.6250
v  0.0000   0.8839  -0.8839
v  0.6250   0.8839  -0.6250

# Экватор (y = 0, r = 1.25)
v  1.2500   0.0000   0.0000
v  0.8839   0.0000   0.8839
v  0.0000   0.0000   1.2500
v -0.8839   0.0000   0.8839
v -1.2500   0.0000   0.0000
v -0.8839   0.0000  -0.8839
v  0.0000   0.0000  -1.2500
v  0.8839   0.0000  -0.8839

# Кольцо 3 (y = -0.8839, r = 0.8839)
v  0.8839  -0.8839   0.0000
v  0.6250  -0.8839   0.6250
v  0.0000  -0.8839   0.8839
v -0.6250  -0.8839   0.6250
v -0.8839  -0.8839   0.0000
v -0.6250  -0.8839  -0.6250
v  0.0000  -0.8839  -0.8839
v  0.6250  -0.8839  -0.6250

# Южный полюс
v  0.0000  -1.2500   0.0000

# Нормали (единичные, совпадают с направлением от центра)
vn  0.0000   1.0000   0.0000

vn  0.7071   0.7071   0.0000
vn  0.5000   0.7071   0.5000
vn  0.0000   0.7071   0.7071
vn -0.5000   0.7071   0.5000
vn -0.7071   0.7071   0.0000
vn -0.5000   0.7071  -0.5000
vn  0.0000   0.7071  -0.7071
vn  0.5000   0.7071  -0.5000

vn  1.0000   0.0000   0.0000
vn  0.7071   0.0000   0.7071
vn  0.0000   0.0000   1.0000
vn -0.7071   0.0000   0.7071
vn -1.0000   0.0000   0.0000
vn -0.7071   0.0000  -0.7071
vn  0.0000   0.0000  -1.0000
vn  0.7071   0.0000  -0.7071

vn  0.7071  -0.7071   0.0000
vn  0.5000  -0.7071   0.5000
vn  0.0000  -0.7071   0.7071
vn -0.5000  -0.7071   0.5000
vn -0.7071  -0.7071   0.0000
vn -0.5000  -0.7071  -0.5000
vn  0.0000  -0.7071  -0.7071
vn  0.5000  -0.7071  -0.5000

vn  0.0000  -1.0000   0.0000

# Верхняя «шапка» (полюс -> кольцо 1)
f 1//1 3//3 2//2
f 1//1 4//4 3//3
f 1//1 5//5 4//4
f 1//1 6//6 5//5
f 1//1 7//7 6//6
f 1//1 8//8 7//7
f 1//1 9//9 8//8
f 1//1 2//2 9//9

# Полоса между кольцом 1 и экватором
f  2//2  11//11 10//10
f  2//2   3//3  11//11
f  3//3  12//12 11//11
f  3//3   4//4  12//12
f  4//4  13//13 12//12
f  4//4   5//5  13//13
f  5//5  14//14 13//13
f  5//5   6//6  14//14
f  6//6  15//15 14//14
f  6//6   7//7  15//15
f  7//7  16//16 15//15
f  7//7   8//8  16//16
f  8//8  17//17 16//16
f  8//8   9//9  17//17
f  9//9  10//10 17//17
f  9//9   2//2  10//10

# Полоса между экватором и кольцом 3
f 10//10 19//19 18//18
f 10//10 11//11 19//19
f 11//11 20//20 19//19
f 11//11 12//12 20//20
f 12//12 21//21 20//20
f 12//12 13//13 21//21
f 13//13 22//22 21//21
f 13//13 14//14 22//22
f 14//14 23//23 22//22
f 14//14 15//15 23//23
f 15//15 24//24 23//23
f 15//15 16//16 24//24
f 16//16 25//25 24//24
f 16//16 17//17 25//25
f 17//17 18//18 25//25
f 17//17 10//10 18//18

# Нижняя «шапка» (кольцо 3 -> полюс)
f 18//18 19//19 26//26
f 19//19 20//20 26//26
f 20//20 21//21 26//26
f 21//21 22//22 26//26
f 22//22 23//23 26//26
f 23//23 24//24 26//26
f 24//24 25//25 26//26
f 25//25 18//18 26//26